#!OML:ASF H:\SpeedWalk\Project 1\Capture day 2\Session 1\male.ASF
:FULLY-SPECIFIED
:DEGREES
42
root -8.224266 17.747809 -20.570977 1.046114 2.326663 -0.611352
lowerback 7.947525 0.225862 -0.116852 
upperback -0.415552 0.442126 3.039571 
thorax -4.921448 0.262625 3.179316 
lowerneck -13.542056 0.574369 1.779818 
upperneck 18.323058 1.322335 -4.487497 
head 7.938909 0.315207 -1.640067 
rclavicle 0.000000 0.000000 
rhumerus -35.008207 -28.496484 -71.542809 
rradius 21.114968 
rwrist 9.602534 
rhand -12.061547 -10.285790 
rfingers 0.000000 
rthumb 13.997670 -39.794524 
lclavicle 0.000000 0.000000 
lhumerus -40.739033 3.673819 88.020622 
lradius 35.562260 
lwrist -15.713091 
lhand -3.861674 14.932277 
lfingers 0.000000 
lthumb 21.886801 43.714366 
rfemur -22.084536 -0.346220 24.176492 
rtibia 31.471252 
rfoot -9.648716 -6.115951 
rtoes 11.044694 
lfemur -16.441927 -1.154246 -17.071943 
ltibia 72.923134 
lfoot 0.523389 -11.171908 
ltoes -5.587333 
43
root -8.233007 17.754392 -20.511728 0.972095 2.289784 -0.714035
lowerback 8.025956 0.274332 -0.032966 
upperback -0.399153 0.517012 3.066083 
thorax -4.952394 0.298000 3.150661 
lowerneck -13.512930 0.558231 1.764049 
upperneck 18.331270 1.301800 -4.475467 
head 7.935510 0.305887 -1.635661 
rclavicle 0.000000 0.000000 
rhumerus -34.874760 -28.402638 -71.587922 
rradius 21.037651 
rwrist 9.755552 
rhand -12.070431 -10.305451 
rfingers 0.000000 
rthumb 13.989094 -39.814768 
lclavicle 0.000000 0.000000 
lhumerus -40.682605 3.650336 88.041634 
lradius 35.660803 
lwrist -15.744895 
lhand -3.912164 14.914116 
lfingers 0.000000 
lthumb 21.838320 43.701840 
rfemur -21.704226 -0.384772 24.337931 
rtibia 31.327615 
rfoot -9.774316 -6.048374 
rtoes 11.109853 
lfemur -17.431963 -0.879079 -16.890822 
ltibia 74.280435 
lfoot -0.479172 -10.495777 
ltoes -5.714138 
44
root -8.241819 17.761113 -20.452601 0.901992 2.256959 -0.802359
lowerback 8.101332 0.322064 0.034221 
upperback -0.383993 0.589228 3.088792 
thorax -4.982741 0.332420 3.127698 
lowerneck -13.482315 0.542480 1.748949 
upperneck 18.340109 1.281544 -4.462784 
head 7.932057 0.296821 -1.631122 
rclavicle 0.000000 0.000000 
rhumerus -34.739183 -28.316596 -71.630644 
rradius 20.961368 
rwrist 9.914125 
rhand -12.079500 -10.325292 
rfingers 0.000000 
rthumb 13.980347 -39.835209 
lclavicle 0.000000 0.000000 
lhumerus -40.626026 3.640000 88.055721 
lradius 35.759367 
lwrist -15.774543 
lhand -3.972997 14.900674 
lfingers 0.000000 
lthumb 21.779899 43.695165 
rfemur -21.329074 -0.426023 24.482808 
rtibia 31.186098 
rfoot -9.899802 -5.982882 
rtoes 11.160355 
lfemur -18.434133 -0.601906 -16.728543 
ltibia 75.624519 
lfoot -1.465768 -9.844069 
ltoes -5.746124 
45
root -8.250697 17.768074 -20.393683 0.837417 2.229619 -0.876921
lowerback 8.171425 0.368818 0.085111 
upperback -0.369982 0.658389 3.107617 
thorax -5.011170 0.365675 3.110124 
lowerneck -13.452216 0.526920 1.735471 
upperneck 18.351337 1.261321 -4.450334 
head 7.929509 0.287832 -1.626947 
rclavicle 0.000000 0.000000 
rhumerus -34.600366 -28.244998 -71.669333 
rradius 20.888165 
rwrist 10.075699 
rhand -12.091080 -10.343734 
rfingers 0.000000 
rthumb 13.969187 -39.854421 
lclavicle 0.000000 0.000000 
lhumerus -40.568544 3.651582 88.059040 
lradius 35.858378 
lwrist -15.796246 
lhand -4.050802 14.892912 
lfingers 0.000000 
lthumb 21.705181 43.696042 
rfemur -20.959205 -0.468367 24.611253 
rtibia 31.043054 
rfoot -10.020855 -5.922740 
rtoes 11.178188 
lfemur -19.453777 -0.323104 -16.588292 
ltibia 76.941051 
lfoot -2.418832 -9.261538 
ltoes -5.659641 
46
root -8.259634 17.775251 -20.334955 0.777825 2.207225 -0.939075
lowerback 8.236755 0.414691 0.121307 
upperback -0.357007 0.724796 3.122939 
thorax -5.037869 0.397880 3.097409 
lowerneck -13.422582 0.511533 1.723455 
upperneck 18.364719 1.241128 -4.438096 
head 7.927778 0.278912 -1.623099 
rclavicle 0.000000 0.000000 
rhumerus -34.458631 -28.186424 -71.704384 
rradius 20.817736 
rwrist 10.239981 
rhand -12.104925 -10.360912 
rfingers 0.000000 
rthumb 13.955852 -39.872525 
lclavicle 0.000000 0.000000 
lhumerus -40.510248 3.682925 88.052650 
lradius 35.957792 
lwrist -15.810785 
lhand -4.143909 14.890273 
lfingers 0.000000 
lthumb 21.615769 43.703728 
rfemur -20.594099 -0.511697 24.724883 
rtibia 30.898633 
rfoot -10.137911 -5.867421 
rtoes 11.166566 
lfemur -20.489177 -0.042834 -16.467902 
ltibia 78.232742 
lfoot -3.341662 -8.741380 
ltoes -5.466341 
47
root -8.271095 17.784618 -20.260316 0.705889 2.187257 -1.017792
lowerback 8.317285 0.470831 0.165087 
upperback -0.340997 0.806130 3.142404 
thorax -5.070697 0.437332 3.082739 
lowerneck -13.389405 0.492047 1.708882 
upperneck 18.386279 1.215587 -4.422798 
head 7.927904 0.267564 -1.618442 
rclavicle 0.000000 0.000000 
rhumerus -34.274168 -28.127572 -71.745365 
rradius 20.734912 
rwrist 10.442892 
rhand -12.129203 -10.380090 
rfingers 0.000000 
rthumb 13.932466 -39.893308 
lclavicle 0.000000 0.000000 
lhumerus -40.434124 3.744336 88.035611 
lradius 36.087150 
lwrist -15.809585 
lhand -4.281798 14.897369 
lfingers 0.000000 
lthumb 21.483322 43.725988 
rfemur -20.129112 -0.566730 24.867949 
rtibia 30.705375 
rfoot -10.278630 -5.807391 
rtoes 11.115176 
lfemur -21.828357 0.310570 -16.323274 
ltibia 79.846138 
lfoot -4.478595 -8.163299 
ltoes -5.170451 
48
root -8.286881 17.797773 -20.158266 0.613110 2.173439 -1.129799
lowerback 8.424183 0.544043 0.226901 
upperback -0.319868 0.912953 3.170112 
thorax -5.114199 0.489036 3.063034 
lowerneck -13.351673 0.465406 1.690314 
upperneck 18.423830 1.180754 -4.402622 
head 7.932149 0.251954 -1.612623 
rclavicle 0.000000 0.000000 
rhumerus -34.015221 -28.070367 -71.796968 
rradius 20.635456 
rwrist 10.703197 
rhand -12.174526 -10.402590 
rfingers 0.000000 
rthumb 13.888802 -39.918788 
lclavicle 0.000000 0.000000 
lhumerus -40.327427 3.863082 87.998200 
lradius 36.270513 
lwrist -15.770239 
lhand -4.502014 14.923086 
lfingers 0.000000 
lthumb 21.271776 43.775714 
rfemur -19.489942 -0.641222 25.066633 
rtibia 30.422458 
rfoot -10.456127 -5.742864 
rtoes 10.988828 
lfemur -23.698158 0.789111 -16.135275 
ltibia 82.001879 
lfoot -5.973855 -7.510508 
ltoes -4.714659 
49
root -8.302389 17.810911 -20.056990 0.523457 2.171357 -1.269616
lowerback 8.531453 0.613056 0.318236 
upperback -0.299524 1.017693 3.204287 
thorax -5.158104 0.538983 3.033392 
lowerneck -13.323427 0.438408 1.674352 
upperneck 18.472440 1.145709 -4.384960 
head 7.941822 0.235972 -1.608221 
rclavicle 0.000000 0.000000 
rhumerus -33.753042 -28.025945 -71.850750 
rradius 20.565005 
rwrist 10.906585 
rhand -12.237833 -10.424268 
rfingers 0.000000 
rthumb 13.827794 -39.944652 
lclavicle 0.000000 0.000000 
lhumerus -40.222408 4.013689 87.949097 
lradius 36.467004 
lwrist -15.665302 
lhand -4.751252 14.959461 
lfingers 0.000000 
lthumb 21.032423 43.838939 
rfemur -18.842827 -0.710927 25.293423 
rtibia 30.108631 
rfoot -10.608525 -5.700314 
rtoes 10.825592 
lfemur -25.597296 1.259035 -15.938702 
ltibia 84.070904 
lfoot -7.395659 -7.011300 
ltoes -4.364999 
50
root -8.317341 17.823854 -19.956215 0.423352 2.177330 -1.456987
lowerback 8.651862 0.676097 0.461523 
upperback -0.274488 1.120932 3.251678 
thorax -5.203470 0.586902 2.988051 
lowerneck -13.308197 0.413098 1.658545 
upperneck 18.530887 1.113899 -4.370673 
head 7.957247 0.220984 -1.604748 
rclavicle 0.000000 0.000000 
rhumerus -33.483962 -27.982678 -71.911732 
rradius 20.529663 
rwrist 11.036378 
rhand -12.316390 -10.456090 
rfingers 0.000000 
rthumb 13.752092 -39.981618 
lclavicle 0.000000 0.000000 
lhumerus -40.115500 4.191123 87.896283 
lradius 36.679569 
lwrist -15.476412 
lhand -5.056330 14.978215 
lfingers 0.000000 
lthumb 20.739316 43.889905 
rfemur -18.168150 -0.773202 25.569876 
rtibia 29.755665 
rfoot -10.742524 -5.676682 
rtoes 10.718132 
lfemur -27.515397 1.720708 -15.714484 
ltibia 86.052523 
lfoot -8.775524 -6.638536 
ltoes -4.296143 
51
root -8.331654 17.836148 -19.855912 0.315651 2.192566 -1.686427
lowerback 8.786783 0.733222 0.654312 
upperback -0.248030 1.222721 3.309307 
thorax -5.254323 0.632858 2.925315 
lowerneck -13.303179 0.389025 1.643982 
upperneck 18.597149 1.084124 -4.358258 
head 7.977207 0.206687 -1.601994 
rclavicle 0.000000 0.000000 
rhumerus -33.210967 -27.918249 -71.989579 
rradius 20.532872 
rwrist 11.074543 
rhand -12.403283 -10.496711 
rfingers 0.000000 
rthumb 13.668359 -40.027915 
lclavicle 0.000000 0.000000 
lhumerus -40.011608 4.372736 87.847427 
lradius 36.910287 
lwrist -15.206610 
lhand -5.367798 15.045081 
lfingers 0.000000 
lthumb 20.439969 43.989164 
rfemur -17.472345 -0.828396 25.889656 
rtibia 29.371362 
rfoot -10.867286 -5.670444 
rtoes 10.684716 
lfemur -29.453210 2.170684 -15.468321 
ltibia 87.958123 
lfoot -10.155373 -6.336318 
ltoes -4.514283 
